# xmcd CD database file generated by OrangeCD 5.2
#
# Track frame offsets:
#	150
#	20511
#	48333
#	73165
#	92231
#	114769
#	133965
#	158858
#	176616
#	193190
#	211310
#
# Disc length: 3153 seconds
#
# Revision: 0
# Processed by: cddbd v1.5.1PL0 Copyright (c) Steve Scherf et al.
# Submitted via: OrangeCD 5.2
#
DISCID=9d0c4f0b
DTITLE=Line 256 - Collective Effort
DYEAR=2003
DGENRE=Blues
TTITLE0=Work Number One
TTITLE1=Underwater Machine
TTITLE2=Synthetic Dream
TTITLE3=Element Y
TTITLE4=Internal Error
TTITLE5=Walking Construction
TTITLE6=Virtual Space
TTITLE7=Work Number Six
TTITLE8=Collective Effort
TTITLE9=8 BIT
TTITLE10=Electro Human
EXTD=
EXTT0=
EXTT1=
EXTT2=
EXTT3=
EXTT4=
EXTT5=
EXTT6=
EXTT7=
EXTT8=
EXTT9=
EXTT10=
PLAYORDER=
